# xmcd
#
# Track frame offsets:
#  150
#  15866
#  39469
#  64137
#  87118
#  115907
#
# Disc length: 1826 seconds
#
# Revision: 0
# Processed by: cddbd v1.5.2PL0 Copyright (c) Steve Scherf et al.
# Submitted via: AltoMP3_Maker 3.0
#
DISCID=3d072006
DTITLE=Special Love - i want to touch you (demo EP)
DYEAR=1900
DGENRE=
TTITLE0=the prettiest boy
TTITLE1=i see you
TTITLE2=binoculars
TTITLE3=i want to touch you
TTITLE4=communal showers
TTITLE5=watching you
EXTD=
EXTT0=
EXTT1=
EXTT2=
EXTT3=
EXTT4=
EXTT5=
PLAYORDER=
